<?xml version="1.0" standalone="no"?>
<!DOCTYPE svg PUBLIC "-//W3C//DTD SVG 20010904//EN"
 "http://www.w3.org/TR/2001/REC-SVG-20010904/DTD/svg10.dtd">
<svg version="1.0" xmlns="http://www.w3.org/2000/svg"
 width="700.000000pt" height="700.000000pt" viewBox="0 0 700.000000 700.000000"
 preserveAspectRatio="xMidYMid meet">
<metadata>
Created by potrace 1.14, written by Peter Selinger 2001-2017
</metadata>
<g transform="translate(0.000000,700.000000) scale(0.100000,-0.100000)"
fill="#000000" stroke="none">
<path d="M3230 6473 c-911 -89 -1716 -569 -2214 -1321 -363 -547 -523 -1135
-494 -1809 64 -1507 1310 -2753 2821 -2821 678 -31 1294 141 1842 516 680 464
1132 1182 1266 2008 30 187 38 584 14 784 -42 366 -128 656 -294 995 -445 905
-1323 1522 -2331 1639 -122 14 -500 20 -610 9z m258 -1585 l-3 -1393 -1100
-832 -1100 -833 -28 32 c-57 66 -171 257 -253 423 -136 277 -227 586 -266 905
-16 135 -16 485 0 620 62 507 255 983 559 1383 101 133 320 357 453 464 350
283 779 484 1206 567 156 30 335 51 472 54 l62 2 -2 -1392z"/>
</g>
</svg>
